{
   "accessors" : [
      {
         "bufferView" : 2,
         "byteOffset" : 0,
         "componentType" : 5126,
         "count" : 4,
         "max" : [ 1, 1, 1, 1 ],
         "min" : [ 1, 1, 1, 1 ],
         "name" : "accessor_color_m0-PolyGem25_-262528",
         "type" : "VEC4"
      },
      {
         "bufferView" : 2,
         "byteOffset" : 64,
         "componentType" : 5126,
         "count" : 9316,
         "max" : [ 1, 1, 1, 1 ],
         "min" : [ 5.692175545846112e-05, 0.006584956776350737, 0.006584956776350737, 1 ],
         "name" : "accessor_color_m1-PolyPaper15_-262526",
         "type" : "VEC4"
      },
      {
         "bufferView" : 0,
         "byteOffset" : 0,
         "componentType" : 5123,
         "count" : 6,
         "max" : [ 3 ],
         "min" : [ 0 ],
         "name" : "accessor_indices_0_m0-PolyGem25_-262528",
         "type" : "SCALAR"
      },
      {
         "bufferView" : 0,
         "byteOffset" : 12,
         "componentType" : 5123,
         "count" : 13230,
         "max" : [ 9315 ],
         "min" : [ 0 ],
         "name" : "accessor_indices_0_m1-PolyPaper15_-262526",
         "type" : "SCALAR"
      },
      {
         "bufferView" : 1,
         "byteOffset" : 48,
         "componentType" : 5126,
         "count" : 4,
         "max" : [ 0.3734974, 0.01244855, 0.9275485 ],
         "min" : [ 0.3734953, 0.01244551, 0.9275478 ],
         "name" : "accessor_normal_m0-PolyGem25_-262528",
         "type" : "VEC3"
      },
      {
         "bufferView" : 1,
         "byteOffset" : 111888,
         "componentType" : 5126,
         "count" : 9316,
         "max" : [ 0.9976338, 0.9999479999999999, 0.9998302999999999 ],
         "min" : [ -0.9977463, -0.9999478000000001, -0.999965 ],
         "name" : "accessor_normal_m1-PolyPaper15_-262526",
         "type" : "VEC3"
      },
      {
         "bufferView" : 1,
         "byteOffset" : 0,
         "componentType" : 5126,
         "count" : 4,
         "max" : [ 0.125706, 2.277799, -0.953631 ],
         "min" : [ -0.3510206, 1.924518, -1.141422 ],
         "name" : "accessor_position_m0-PolyGem25_-262528",
         "type" : "VEC3"
      },
      {
         "bufferView" : 1,
         "byteOffset" : 96,
         "componentType" : 5126,
         "count" : 9316,
         "max" : [ 0.552849, 2.596796, -0.7572033 ],
         "min" : [ -0.8372114, 0.2700948, -1.607726 ],
         "name" : "accessor_position_m1-PolyPaper15_-262526",
         "type" : "VEC3"
      }
   ],
   "asset" : {
      "copyright" : "Unknown",
      "extras" : {
         "GOOGLE_processor_version" : 294144208
      },
      "generator" : "glTF 1-to-2 Upgrader for Google Blocks",
      "version" : "2.0"
   },
   "bufferViews" : [
      {
         "buffer" : 0,
         "byteLength" : 26472,
         "byteOffset" : 0,
         "name" : "ushortBufferView",
         "target" : 34963
      },
      {
         "buffer" : 0,
         "byteLength" : 223680,
         "byteOffset" : 26472,
         "byteStride" : 12,
         "name" : "vec3BufferView",
         "target" : 34962
      },
      {
         "buffer" : 0,
         "byteLength" : 149120,
         "byteOffset" : 250152,
         "byteStride" : 16,
         "name" : "vec4BufferView",
         "target" : 34962
      }
   ],
   "buffers" : [
      {
         "byteLength" : 399272,
         "name" : "model",
         "uri" : "model.bin"
      }
   ],
   "cameras" : [
      {
         "perspective" : {
            "yfov" : 0.7853981633974483,
            "znear" : 0.1000000014901161
         },
         "type" : "perspective"
      }
   ],
   "extensions" : {
      "KHR_lights_punctual" : {
         "lights" : [
            {
               "color" : [ 1, 0.9333333333333333, 0.8666666666666667 ],
               "intensity" : 0.25,
               "name" : "headLight",
               "type" : "directional"
            },
            {
               "color" : [ 1, 0.9333333333333333, 0.8666666666666667 ],
               "intensity" : 0.324999988079071,
               "name" : "keyLight",
               "type" : "directional"
            }
         ]
      }
   },
   "extensionsUsed" : [ "GOOGLE_backgrounds", "GOOGLE_camera_settings", "KHR_lights_punctual" ],
   "extras" : {
      "GOOGLE_initial_camera_motion" : {
         "motionPath" : "FULL_ROTATION"
      },
      "GOOGLE_lighting_rig" : {
         "disableShadows" : false
      }
   },
   "materials" : [
      {
         "alphaMode" : "OPAQUE",
         "doubleSided" : false,
         "name" : "BlocksPaper",
         "pbrMetallicRoughness" : {
            "baseColorFactor" : [ 1, 1, 1, 1 ],
            "metallicFactor" : 0,
            "roughnessFactor" : 0.6
         }
      },
      {
         "alphaMode" : "BLEND",
         "doubleSided" : false,
         "name" : "BlocksGlass",
         "pbrMetallicRoughness" : {
            "baseColorFactor" : [ 0.2, 0.2, 1, 0.3 ],
            "metallicFactor" : 1,
            "roughnessFactor" : 0.4
         }
      },
      {
         "alphaMode" : "OPAQUE",
         "doubleSided" : true,
         "name" : "BlocksGem",
         "pbrMetallicRoughness" : {
            "baseColorFactor" : [ 1, 0.4, 1, 1 ],
            "metallicFactor" : 0,
            "roughnessFactor" : 0.1
         }
      }
   ],
   "meshes" : [
      {
         "name" : "mesh_m0-PolyGem25_-262528",
         "primitives" : [
            {
               "attributes" : {
                  "COLOR_0" : 0,
                  "NORMAL" : 4,
                  "POSITION" : 6
               },
               "indices" : 2,
               "material" : 2,
               "mode" : 4
            }
         ]
      },
      {
         "name" : "mesh_m1-PolyPaper15_-262526",
         "primitives" : [
            {
               "attributes" : {
                  "COLOR_0" : 1,
                  "NORMAL" : 5,
                  "POSITION" : 7
               },
               "indices" : 3,
               "material" : 0,
               "mode" : 4
            }
         ]
      }
   ],
   "nodes" : [
      {
         "mesh" : 0,
         "name" : "node_MeshObject-1626741184-PolyGem25"
      },
      {
         "mesh" : 1,
         "name" : "node_MeshObject883759424-PolyPaper15"
      },
      {
         "children" : [ 3 ]
      },
      {
         "children" : [ 4 ],
         "extras" : {
            "isTransformNode" : 1
         },
         "translation" : [ -0.1618837095675257, 1.486991898310099, -1.199075938350112 ]
      },
      {
         "children" : [ 0, 1 ],
         "translation" : [ 0.1618837095675257, -1.486991898310099, 1.199075938350112 ]
      },
      {
         "camera" : 0,
         "children" : [ 6 ],
         "rotation" : [
            -0.009146511014871893,
            -0.01850335907534432,
            -0.0001692772427044211,
            0.9997869464963018
         ],
         "translation" : [ -0.2925027698945207, 1.551777869135785, 2.32637934024252 ]
      },
      {
         "extensions" : {
            "KHR_lights_punctual" : {
               "light" : 0
            }
         },
         "extras" : {
            "isHeadLight" : 1
         },
         "name" : "headLightNode",
         "translation" : [ -2.010811092599459, 1.005405546299729, 1.005405546299729 ]
      },
      {
         "extensions" : {
            "KHR_lights_punctual" : {
               "light" : 1
            }
         },
         "extras" : {
            "isKeyLight" : 1
         },
         "name" : "keyLightNode",
         "rotation" : [ -0.7505326882858236, -0.3752663441429118, 0, 0.5439447166468927 ],
         "scale" : [ 0, 0, 2.030919203525453 ],
         "translation" : [ -2.291481211113312, 6.07798604835769, -3.089463348640653 ]
      }
   ],
   "scene" : 0,
   "scenes" : [
      {
         "extensions" : {
            "GOOGLE_backgrounds" : {
               "color" : [ 1, 0.7176470588235294, 0.3019607843137255 ]
            },
            "GOOGLE_camera_settings" : {}
         },
         "extras" : {
            "GOOGLE_camera_index" : {
               "cameraIndex" : 0,
               "nodeIndex" : 5
            },
            "GOOGLE_geometry_data" : {
               "stats" : {
                  "centroid" : [ -0.2605620075878587, 2.016147641306783, -1.0585441451152 ],
                  "radius" : 2.010811092599459,
                  "stdev" : 0.73092629514504
               },
               "visualCenterPoint" : [ -0.1618837095675257, 1.486991898310099, -1.199075938350112 ]
            },
            "GOOGLE_hemi_light" : {
               "groundColor" : [ 1, 0.7176470588235294, 0.3019607843137255 ]
            }
         },
         "name" : "defaultScene",
         "nodes" : [ 2, 5, 7 ]
      }
   ]
}
